<?xml version="1.0" encoding="utf-8"?>
<!-- Generator: Adobe Illustrator 26.0.1, SVG Export Plug-In . SVG Version: 6.00 Build 0)  -->
<svg version="1.1" id="Primary_Logo_Horizontal_1-Line"
	 xmlns="http://www.w3.org/2000/svg" xmlns:xlink="http://www.w3.org/1999/xlink" x="0px" y="0px" viewBox="0 0 404.1 88.6"
	 style="enable-background:new 0 0 404.1 88.6;" xml:space="preserve">
<style type="text/css">
	.st0{fill:#F76900;}
</style>
<g>
	<g>
		<path class="st0" d="M81.4,59l-1.6-7.7l2.1-0.7c1.3,2.8,3.8,6.4,8.4,6.4c2.9,0,5.8-1.6,5.8-5.3c0-7-14.9-5.5-14.9-14.5
			c0-5.3,4-7.9,8.7-7.9c3.1,0,4.9,1.4,5.5,2.1l0.5-1.4h1.8l1.8,6.9l-2.1,0.7c-1.2-2.7-3.8-5.6-7.5-5.6c-3.2,0-4.7,1.9-4.7,4.3
			c0,6.4,14.9,4.8,14.9,14.4c0,6.5-5.5,9-9.9,9c-2.6,0-4.6-0.8-6.3-2L83.1,59H81.4z"/>
		<path class="st0" d="M107.4,68.7c-1.4,0.6-2.6,0-2.9-1.1L109,59l-6.7-14.9c-0.5-1.2-0.8-1.5-2.6-1.9v-1.7h8.1v1.7l-2.2,0.5
			l5.1,11.3l5-11.4l-2.1-0.5v-1.7h6.7v1.7c-1.1,0.3-1.9,0.7-2.5,1.9l-7,15.4L107.4,68.7z"/>
		<path class="st0" d="M133.1,44.7c-0.2-0.7-0.9-1.3-1.8-1.3c-1.4,0-2.8,1.2-3.7,2.3v11l2.2,0.5V59h-7.5v-1.7l1.8-0.4V44.3l-2.2-0.6
			v-1.5c2.2-0.4,3.2-1.1,4.2-2.5l1.5,0.3l-0.2,4c1-1.8,2.7-4,5.3-4c1.3,0,2.6,0.8,2.6,2.4C135.3,43.8,134.2,44.7,133.1,44.7"/>
		<path class="st0" d="M146.8,54.2V51l-4.3,0.8c-1.1,0.2-2.9,0.9-2.9,2.9c0,1.4,1,2.6,3,2.6C144.7,57.3,146.3,55.9,146.8,54.2
			 M152.7,56.8l0.4,0.8c-0.1,0.3-1.4,1.9-3.4,1.9c-1.9,0-2.8-1.1-2.9-2.3c-1,1.5-3,2.4-5.4,2.4c-3.7,0-5.4-2.4-5.4-4.4
			c0-3.1,1.9-4.8,5.4-5.4l5.3-1v-4c0-1.6-1.1-2.8-2.8-2.8c-1.7,0-2.5,0.7-3.2,1.5c0.6,2.7-1.8,4-4.1,2.8c0.1-4,4-6.6,7.7-6.6
			c4.3,0,5.9,2.5,5.9,5.8v10.3c0,0.7,0.4,1.2,1.1,1.2C152.1,57.1,152.6,56.9,152.7,56.8"/>
		<path class="st0" d="M170.2,43.4c0,1.3-1.3,2.1-2.5,2.2c-0.7-1.8-1.9-2.9-4.2-2.9c-3.3,0-5.9,2.8-5.9,7.5c0,3.9,2.5,6.5,5.9,6.5
			c2.6,0,4.4-1.2,5.7-2.8l0.9,0.6c-0.7,2.9-3.3,5.4-8,5.4c-4.4,0-8.2-3-8.2-8.7c0-7,5.6-11.1,10.8-11.1
			C167.3,39.9,170.2,41,170.2,43.4"/>
		<path class="st0" d="M174,42.7l-2.2-0.5v-1.7h5.7v13.1c0,1.9,0.9,2.9,2.6,2.9c1.3,0,3.7-0.6,5.9-2.6V42.7l-2.2-0.5v-1.7h5.7v15.3
			h2.2v1.7c-1.5,0.4-3,1-4.2,1.9l-1.5-0.3l0.2-3.2c-2.2,2.1-4.7,3.7-7.4,3.7c-2.8,0-4.9-1.9-4.9-4.4V42.7z"/>
		<path class="st0" d="M195.5,59h-1.1l-0.9-5.4l1.3-0.3c1.1,2.2,3.2,4.2,5.9,4.2c2.4,0,3.4-1.6,3.4-2.8c0-4.1-10-3.4-10-9.6
			c0-2.9,2.5-5.3,5.7-5.3c1.8,0,3.3,0.6,4.1,1.2l0.2-0.6h1.4l0.8,4.7l-1.3,0.3c-0.6-1.3-2-3.6-4.8-3.6c-1.9,0-2.8,1.2-2.8,2.2
			c0,3.7,9.9,2.8,9.9,9.3c0,3.7-3.2,6.1-6.7,6.1c-1.9,0-4-1.1-4.8-2L195.5,59z"/>
		<path class="st0" d="M213.4,48.2L222,47c0-3.5-1.8-4.9-3.6-4.9C215.1,42.1,213.5,44.9,213.4,48.2 M213.3,50.5
			c0.2,3.4,2.4,6.1,5.5,6.1c2.7,0,4.5-1.2,5.9-3.2l0.9,0.6c-0.7,3.4-3.6,5.8-7.9,5.8c-4.4,0-8.1-3.1-8.1-8.8c0-7.7,4.6-11,8.9-11
			c4,0,7.3,2.4,7.3,8l-0.7,1.1L213.3,50.5z"/>
		<path class="st0" d="M260.8,48.5c0,7.2-4.2,11.4-11.6,11.4c-7.3,0-11.6-4.2-11.6-11.4V32.4l-2.3-0.5V30h8.7v1.9l-2.3,0.5v15.5
			c0,5.6,2.3,9,8.2,9c4.7,0,7.8-3.2,7.8-8.7V32.4l-2.3-0.5V30h7.6v1.9l-2.3,0.5V48.5z"/>
		<path class="st0" d="M264,59v-1.7l1.8-0.4V44.3l-2.2-0.6v-1.5c2.2-0.4,3.2-1.1,4.2-2.5l1.5,0.3l-0.2,3.7c2.2-2.1,4.7-3.7,7.4-3.7
			c2.8,0,4.9,1.9,4.9,4.4v12.6l2.2,0.5V59h-7.5v-1.7l1.8-0.4v-11c0-1.9-0.9-2.9-2.6-2.9c-1.3,0-3.7,0.6-5.9,2.6v11.2l2.2,0.5V59H264
			z"/>
		<path class="st0" d="M290,32.2c1.2,0,2.2,1,2.2,2.2c0,1.2-1,2.2-2.2,2.2c-1.2,0-2.2-1-2.2-2.2C287.8,33.2,288.7,32.2,290,32.2
			 M286,59v-1.7l2-0.5V44.3l-2.2-0.6v-1.5c2.2-0.4,3.2-1.1,4.2-2.5l1.5,0.3v17l2,0.5V59H286z"/>
		<path class="st0" d="M294,40.5h8.1v1.7l-2.2,0.5l5.1,11.3l5-11.4l-2.1-0.5v-1.7h6.7v1.7c-1.1,0.3-1.9,0.7-2.5,1.9l-7,15.4h-1.6
			l-6.9-15.3c-0.6-1.2-0.8-1.5-2.6-1.9V40.5z"/>
		<path class="st0" d="M318.1,48.2l8.6-1.1c0-3.5-1.8-4.9-3.6-4.9C319.8,42.1,318.3,44.9,318.1,48.2 M318.1,50.5
			c0.2,3.4,2.4,6.1,5.5,6.1c2.7,0,4.5-1.2,5.9-3.2l0.9,0.6c-0.7,3.4-3.6,5.8-7.9,5.8c-4.4,0-8.1-3.1-8.1-8.8c0-7.7,4.6-11,8.9-11
			c4,0,7.3,2.4,7.3,8l-0.7,1.1L318.1,50.5z"/>
		<path class="st0" d="M343.5,44.7c-0.2-0.7-0.9-1.3-1.8-1.3c-1.4,0-2.8,1.2-3.7,2.3v11l2.2,0.5V59h-7.5v-1.7l1.8-0.4V44.3l-2.2-0.6
			v-1.5c2.2-0.4,3.2-1.1,4.2-2.5l1.5,0.3l-0.2,4c1-1.8,2.7-4,5.3-4c1.3,0,2.6,0.8,2.6,2.4C345.8,43.8,344.7,44.7,343.5,44.7"/>
		<path class="st0" d="M348.6,59h-1.1l-0.9-5.4l1.3-0.3c1.1,2.2,3.2,4.2,5.9,4.2c2.4,0,3.4-1.6,3.4-2.8c0-4.1-10-3.4-10-9.6
			c0-2.9,2.5-5.3,5.7-5.3c1.8,0,3.3,0.6,4.1,1.2l0.2-0.6h1.4l0.8,4.7l-1.3,0.3c-0.6-1.3-2-3.6-4.8-3.6c-1.9,0-2.8,1.2-2.8,2.2
			c0,3.7,9.9,2.8,9.9,9.3c0,3.7-3.2,6.1-6.7,6.1c-1.9,0-4-1.1-4.8-2L348.6,59z"/>
		<path class="st0" d="M366.7,32.2c1.2,0,2.2,1,2.2,2.2c0,1.2-1,2.2-2.2,2.2c-1.2,0-2.2-1-2.2-2.2C364.5,33.2,365.5,32.2,366.7,32.2
			 M362.8,59v-1.7l2-0.5V44.3l-2.2-0.6v-1.5c2.2-0.4,3.2-1.1,4.2-2.5l1.5,0.3v17l2,0.5V59H362.8z"/>
		<path class="st0" d="M374,55.8v-13h-2.9v-1.7c2.4-0.4,4-2.6,4.8-5l1.5,0.3v4.2h4.8v2.2h-4.8V55c0,1.4,0.6,2.1,1.8,2.1
			c0.8,0,1.6-0.5,2.1-1.1l0.9,0.7c-0.5,1.4-2.1,2.9-4.2,2.9C375.7,59.7,374,58.3,374,55.8"/>
		<path class="st0" d="M387.5,68.7c-1.4,0.6-2.6,0-2.9-1.1L389,59l-6.7-14.9c-0.5-1.2-1.6-1.4-2.8-1.4h-3.7v-2.2h12v1.7l-2.2,0.5
			l5.1,11.3l5-11.4l-2.1-0.5v-1.7h6.7v1.7c-1.1,0.3-1.9,0.7-2.5,1.9l-7,15.4L387.5,68.7z"/>
	</g>
	<g>
		<path id="XMLID_26_" class="st0" d="M40.6,30.7c1,0,17.6,0,18.5,0V17.2C58.8,16.9,48.8,7.2,48.5,7H15.1c-0.3,0.3-10,9.9-10.3,10.2
			v24.8c0.3,0.3,9.6,9.7,9.9,10h26v14.4H23.5v-8.2c-1,0-17.7,0-18.7,0v13.5c0.3,0.3,10,9.9,10.3,10.2h33.4
			c0.3-0.3,10.3-9.9,10.6-10.2V46.8c-0.3-0.3-9.6-9.7-9.9-10H23.5V22.5h17.2V30.7z"/>
	</g>
</g>
</svg>
